<?xml version="1.0" encoding="utf-8"?>
<!-- Generator: Adobe Illustrator 24.2.0, SVG Export Plug-In . SVG Version: 6.00 Build 0)  -->
<svg version="1.1" id="图层_1" xmlns="http://www.w3.org/2000/svg" xmlns:xlink="http://www.w3.org/1999/xlink" x="0px" y="0px"
	 viewBox="0 0 102.05 102.05" style="enable-background:new 0 0 102.05 102.05;" xml:space="preserve">
<style type="text/css">
	.st0{fill:#A6D39A;}
	.st1{fill:#FFFFFF;}
	.st2{fill:#2D313A;}
	.st3{fill:#75C9CE;}
	.st4{fill:none;stroke:#6C534A;stroke-width:2;stroke-linecap:round;stroke-miterlimit:10;}
	.st5{fill:none;stroke:#6C534A;stroke-linecap:round;stroke-miterlimit:10;}
</style>
<g id="XMLID_1_">
	<g>
		<path class="st0" d="M84,6.38c0,0,7.75,4.37,1,35c0,0-0.1-4.66-2.28-9.27c-2.02-5.5-4.93-9.63-8.22-12.73L84,6.38z"/>
		<path class="st0" d="M17.5,6.38l9.45,11.82c-4.86,4.31-9.18,10.9-11.27,20.97c-0.04,0.18-0.08,0.34-0.1,0.47
			c-0.03,0.13-0.05,0.24-0.06,0.31c-0.01,0.06-0.02,0.1-0.02,0.1C11.88,8.73,17.5,6.38,17.5,6.38z"/>
		<path class="st1" d="M85,41.38c0,0,0.17,1.23,0.12,3.17c0,0.12-0.01,0.24-0.01,0.36c-0.35,5.89-3.2,16.29-16.73,16.59
			c-6.74,0.15-10.77-2.41-13.18-5.58c-3.77-4.96-3.58-11.42-3.58-11.42c0.5-21.38,16.76-21.39,16.76-21.39
			c8.05-0.01,12.2,4.47,14.34,9C83.72,34.84,84.51,37.92,85,41.38z M66.88,55.38c0,0,12.24-0.5,11.62-13.2
			c-0.62-12.69-11.62-12.56-11.62-12.56C55.06,29.62,56,42.5,56,42.5C56.75,56.5,66.88,55.38,66.88,55.38z"/>
		<path class="st1" d="M32.25,23.62C46.25,24,49,37.38,49,44.5c0,3.78-1.3,8.31-4.42,11.74c-2.77,3.03-6.96,5.2-12.94,5.26
			c-12.76,0.12-17.39-9.77-16.14-21.45c0,0,0.01-0.04,0.02-0.1c0.02-0.1,0.04-0.21,0.06-0.31c0.02-0.13,0.06-0.29,0.1-0.47
			C16.48,35.71,20.2,23.3,32.25,23.62z M44.5,44.38C46.06,27.31,33.62,29,33.62,29c-10.08,0.47-12,8.88-12,13.18
			c0,4.31,2.26,13.32,12,13.2C44.49,55.38,44.5,44.42,44.5,44.38z"/>
		<path class="st2" d="M66.63,87.96c2.62-3.91,4.96-6.04,6.93-7.12c4.27-2.36,6.82,0.19,6.82,0.19c6.37,6.38-2.54,16.22-6.76,16.69
			c-4.21,0.47-8.8-4.03-8.8-4.03C65.68,92.03,66.25,90.01,66.63,87.96z"/>
		<path class="st2" d="M37.33,87.41c0.47,2.87,1.22,5.13,2.39,6.79h-0.01c0,0-2.93,3.52-9.3,3.52c-6.38,0-10.79-12.75-7.88-15.94
			c1.56-1.71,4.24-1.91,7.17-0.68c2.54,1.05,5.27,3.18,7.62,6.31H37.33z"/>
		<path class="st2" d="M68.75,76.44c0,0,4.31,1.4,4.5,3.47l0.31,0.93c-1.97,1.08-4.31,3.21-6.93,7.12
			c-0.38,2.05-0.95,4.07-1.81,5.73c-1.23,2.37-3.05,4.03-5.73,4.03c-4.83,0-6.03-4.46-6.04-8.84l-0.81,0.01
			c0.14,4.41-0.79,8.93-5.24,8.83c-3.39-0.08-5.71-1.24-7.28-3.52c-1.17-1.66-1.92-3.92-2.39-6.79h-0.01
			c-2.35-3.13-5.08-5.26-7.62-6.31l0.24-0.54c1.87-3.84,5.53-4.5,5.53-4.5c-0.28-4.59,3.21-6.62,3.21-6.62v-0.01
			C10.4,65.26,15.5,40.05,15.5,40.05c-1.25,11.68,3.38,21.57,16.14,21.45c5.98-0.06,10.17-2.23,12.94-5.26l1.48,0.42l4.08,10.59
			l3.98-10.59l1.08-0.74c2.41,3.17,6.44,5.73,13.18,5.58c13.53-0.3,16.38-10.7,16.73-16.59c-0.22,6.27-2.71,19.11-18.7,23.57
			C66.41,68.48,68.38,70.44,68.75,76.44z"/>
		<path class="st2" d="M68.38,23.11c0,0-16.26,0.01-16.76,21.39c0,0-0.19,6.46,3.58,11.42l-1.08,0.74h-8.06l-1.48-0.42
			C47.7,52.81,49,48.28,49,44.5c0-7.12-2.75-20.5-16.75-20.88C20.2,23.3,16.48,35.71,15.68,39.17c2.09-10.07,6.41-16.66,11.27-20.97
			c6.1-5.41,13.04-7.22,17.45-7.81c2.72-0.37,4.48-0.27,4.48-0.27s2.46-0.16,6.11,0.35c5.3,0.73,13.11,2.86,19.51,8.91
			c3.29,3.1,6.2,7.23,8.22,12.73C80.58,27.58,76.43,23.1,68.38,23.11z"/>
		<path class="st2" d="M84,6.38l-9.5,13c-6.4-6.05-14.21-8.18-19.51-8.91C76.97,0.95,84,6.38,84,6.38z"/>
		<path class="st2" d="M44.4,10.39c-4.41,0.59-11.35,2.4-17.45,7.81L17.5,6.38C17.5,6.38,24.67,0.79,44.4,10.39z"/>
		<path class="st2" d="M78.5,42.18c0.62,12.7-11.62,13.2-11.62,13.2S56.75,56.5,56,42.5c0,0-0.94-12.88,10.88-12.88
			C66.88,29.62,77.88,29.49,78.5,42.18z"/>
		<polygon class="st3" points="54.12,56.66 50.14,67.25 46.06,56.66 		"/>
		<path class="st2" d="M33.62,29c0,0,12.44-1.69,10.88,15.38c0,0.04-0.01,11-10.88,11c-9.74,0.12-12-8.89-12-13.2
			C21.62,37.88,23.54,29.47,33.62,29z"/>
	</g>
	<g>
		<path class="st4" d="M15.5,40.05c0,0-5.1,25.21,23.18,29.38c2.08,0.32,4.35,0.51,6.82,0.57"/>
		<path class="st4" d="M15.58,39.64c-0.02,0.1-0.04,0.21-0.06,0.31"/>
		<path class="st4" d="M85.12,44.55c0.05-1.94-0.12-3.17-0.12-3.17c-0.49-3.46-1.28-6.54-2.28-9.27c-2.02-5.5-4.93-9.63-8.22-12.73
			c-6.4-6.05-14.21-8.18-19.51-8.91c-3.65-0.51-6.11-0.35-6.11-0.35s-1.76-0.1-4.48,0.27c-4.41,0.59-11.35,2.4-17.45,7.81
			c-4.86,4.31-9.18,10.9-11.27,20.97"/>
		<path class="st4" d="M56,70c3.99-0.15,7.43-0.69,10.41-1.52c15.99-4.46,18.48-17.3,18.7-23.57"/>
		<line class="st4" x1="74.5" y1="19.38" x2="84" y2="6.38"/>
		<path class="st4" d="M44.4,10.39c-19.73-9.6-26.9-4.01-26.9-4.01s-5.62,2.35-2,33.67c0,0,0.01-0.04,0.02-0.1
			c0.01-0.07,0.03-0.18,0.06-0.31c0.02-0.13,0.06-0.29,0.1-0.47c0.8-3.46,4.52-15.87,16.57-15.55C46.25,24,49,37.38,49,44.5
			c0,3.78-1.3,8.31-4.42,11.74c-2.77,3.03-6.96,5.2-12.94,5.26c-12.76,0.12-17.39-9.77-16.14-21.45"/>
		<line class="st4" x1="26.95" y1="18.2" x2="17.5" y2="6.38"/>
		<path class="st4" d="M85,41.38c0,0-0.1-4.66-2.28-9.27c-2.14-4.53-6.29-9.01-14.34-9c0,0-16.26,0.01-16.76,21.39
			c0,0-0.19,6.46,3.58,11.42c2.41,3.17,6.44,5.73,13.18,5.58c13.53-0.3,16.38-10.7,16.73-16.59c0-0.12,0.01-0.24,0.01-0.36
			C85.19,43.1,85.1,41.97,85,41.38c6.75-30.63-1-35-1-35s-7.03-5.43-29.01,4.09"/>
		<path class="st5" d="M33.62,29c0,0,12.44-1.69,10.88,15.38c0,0.04-0.01,11-10.88,11c-9.74,0.12-12-8.89-12-13.2
			C21.62,37.88,23.54,29.47,33.62,29z"/>
		<path class="st5" d="M66.88,29.62c0,0,11-0.13,11.62,12.56c0.62,12.7-11.62,13.2-11.62,13.2S56.75,56.5,56,42.5
			C56,42.5,55.06,29.62,66.88,29.62z"/>
		<polygon class="st5" points="46.06,56.66 54.12,56.66 50.14,67.25 		"/>
		<path class="st4" d="M66.41,68.48c0,0,1.97,1.96,2.34,7.96c0,0,4.31,1.4,4.5,3.47"/>
		<path class="st4" d="M67.25,77.09c0,0,0.35,5.53-0.62,10.87c-0.38,2.05-0.95,4.07-1.81,5.73c-1.23,2.37-3.05,4.03-5.73,4.03
			c-4.83,0-6.03-4.46-6.04-8.84c-0.01-4.2,1.07-8.32,1.07-8.32"/>
		<path class="st4" d="M51.02,80.75c0,0,1.08,4.02,1.22,8.14c0.14,4.41-0.79,8.93-5.24,8.83c-3.39-0.08-5.71-1.24-7.28-3.52
			c-1.17-1.66-1.92-3.92-2.39-6.79c-0.54-3.19-0.73-7.12-0.74-11.82"/>
		<path class="st4" d="M38.68,69.44c0,0-3.49,2.03-3.21,6.62c0,0-3.66,0.66-5.53,4.5"/>
		<path class="st4" d="M39.71,94.2c0,0-2.93,3.52-9.3,3.52c-6.38,0-10.79-12.75-7.88-15.94c1.56-1.71,4.24-1.91,7.17-0.68
			c2.54,1.05,5.27,3.18,7.62,6.31"/>
		<path class="st4" d="M64.82,93.69c0,0,4.59,4.5,8.8,4.03c4.22-0.47,13.13-10.31,6.76-16.69c0,0-2.55-2.55-6.82-0.19
			c-1.97,1.08-4.31,3.21-6.93,7.12"/>
	</g>
</g>
</svg>
