<svg xmlns="http://www.w3.org/2000/svg" viewBox="0 0 102.05 102.05"><defs><style>.a{fill:#a6d39a;}.b{fill:#fff;}.c{fill:#2d313a;}.d{fill:#75c9ce;}.e,.f{fill:none;stroke:#6c534a;stroke-linecap:round;stroke-miterlimit:10;}.e{stroke-width:2px;}</style></defs><path class="a" d="M84,6.38s7.75,4.37,1,35a25.55,25.55,0,0,0-2.28-9.27A32.62,32.62,0,0,0,74.5,19.38Z"/><path class="a" d="M17.5,6.38,27,18.2c-4.86,4.31-9.18,10.9-11.27,21,0,.18-.08.34-.1.47s-.05.24-.06.31l0,.1C11.88,8.73,17.5,6.38,17.5,6.38Z"/><path class="b" d="M85,41.38a21.53,21.53,0,0,1,.12,3.17c0,.12,0,.24,0,.36-.35,5.89-3.2,16.29-16.73,16.59-6.74.15-10.77-2.41-13.18-5.58-3.77-5-3.58-11.42-3.58-11.42.5-21.38,16.76-21.39,16.76-21.39,8.05,0,12.2,4.47,14.34,9A45.4,45.4,0,0,1,85,41.38Zm-18.12,14s12.24-.5,11.62-13.2S66.88,29.62,66.88,29.62C55.06,29.62,56,42.5,56,42.5,56.75,56.5,66.88,55.38,66.88,55.38Z"/><path class="b" d="M32.25,23.62C46.25,24,49,37.38,49,44.5a17.77,17.77,0,0,1-4.42,11.74c-2.77,3-7,5.2-12.94,5.26-12.76.12-17.39-9.77-16.14-21.45l0-.1.06-.31c0-.13.06-.29.1-.47C16.48,35.71,20.2,23.3,32.25,23.62ZM44.5,44.38C46.06,27.31,33.62,29,33.62,29c-10.08.47-12,8.88-12,13.18s2.26,13.32,12,13.2C44.49,55.38,44.5,44.42,44.5,44.38Z"/><path class="c" d="M66.63,88c2.62-3.91,5-6,6.93-7.12,4.27-2.36,6.82.19,6.82.19,6.37,6.38-2.54,16.22-6.76,16.69s-8.8-4-8.8-4A21,21,0,0,0,66.63,88Z"/><path class="c" d="M37.33,87.41a16.32,16.32,0,0,0,2.39,6.79h0s-2.93,3.52-9.3,3.52S19.62,85,22.53,81.78c1.56-1.71,4.24-1.91,7.17-.68a19.11,19.11,0,0,1,7.62,6.31Z"/><path class="c" d="M68.75,76.44s4.31,1.4,4.5,3.47l.31.93c-2,1.08-4.31,3.21-6.93,7.12a21,21,0,0,1-1.81,5.73c-1.23,2.37-3,4-5.73,4-4.83,0-6-4.46-6-8.84h-.81c.14,4.41-.79,8.93-5.24,8.83-3.39-.08-5.71-1.24-7.28-3.52a16.32,16.32,0,0,1-2.39-6.79h0A19.11,19.11,0,0,0,29.7,81.1l.24-.54a8.32,8.32,0,0,1,5.53-4.5,7.25,7.25,0,0,1,3.21-6.62h0C10.4,65.26,15.5,40.05,15.5,40.05,14.25,51.73,18.88,61.62,31.64,61.5c6-.06,10.17-2.23,12.94-5.26l1.48.42,4.08,10.59,4-10.59,1.08-.74c2.41,3.17,6.44,5.73,13.18,5.58,13.53-.3,16.38-10.7,16.73-16.59C84.89,51.18,82.4,64,66.41,68.48,66.41,68.48,68.38,70.44,68.75,76.44Z"/><path class="c" d="M68.38,23.11s-16.26,0-16.76,21.39c0,0-.19,6.46,3.58,11.42l-1.08.74H46.06l-1.48-.42A17.77,17.77,0,0,0,49,44.5c0-7.12-2.75-20.5-16.75-20.88-12-.32-15.77,12.09-16.57,15.55C17.77,29.1,22.09,22.51,27,18.2A33,33,0,0,1,44.4,10.39a25.87,25.87,0,0,1,4.48-.27,33.22,33.22,0,0,1,6.11.35c5.3.73,13.11,2.86,19.51,8.91a32.62,32.62,0,0,1,8.22,12.73C80.58,27.58,76.43,23.1,68.38,23.11Z"/><path class="c" d="M84,6.38l-9.5,13c-6.4-6-14.21-8.18-19.51-8.91C77,1,84,6.38,84,6.38Z"/><path class="c" d="M44.4,10.39A33,33,0,0,0,27,18.2L17.5,6.38S24.67.79,44.4,10.39Z"/><path class="c" d="M78.5,42.18c.62,12.7-11.62,13.2-11.62,13.2S56.75,56.5,56,42.5c0,0-.94-12.88,10.88-12.88C66.88,29.62,77.88,29.49,78.5,42.18Z"/><polygon class="d" points="54.12 56.66 50.14 67.25 46.06 56.66 54.12 56.66"/><path class="c" d="M33.62,29S46.06,27.31,44.5,44.38c0,0,0,11-10.88,11-9.74.12-12-8.89-12-13.2S23.54,29.47,33.62,29Z"/><path class="e" d="M15.5,40.05S10.4,65.26,38.68,69.43A53.51,53.51,0,0,0,45.5,70"/><path class="e" d="M15.58,39.64l-.06.31"/><path class="e" d="M85.12,44.55A21.53,21.53,0,0,0,85,41.38a45.4,45.4,0,0,0-2.28-9.27A32.62,32.62,0,0,0,74.5,19.38c-6.4-6-14.21-8.18-19.51-8.91a33.22,33.22,0,0,0-6.11-.35,25.87,25.87,0,0,0-4.48.27A33,33,0,0,0,27,18.2c-4.86,4.31-9.18,10.9-11.27,21"/><path class="e" d="M56,70a45,45,0,0,0,10.41-1.52c16-4.46,18.48-17.3,18.7-23.57"/><line class="e" x1="74.5" y1="19.38" x2="84" y2="6.38"/><path class="e" d="M44.4,10.39c-19.73-9.6-26.9-4-26.9-4s-5.62,2.35-2,33.67l0-.1c0-.07,0-.18.06-.31s.06-.29.1-.47c.8-3.46,4.52-15.87,16.57-15.55C46.25,24,49,37.38,49,44.5a17.77,17.77,0,0,1-4.42,11.74c-2.77,3-7,5.2-12.94,5.26-12.76.12-17.39-9.77-16.14-21.45"/><line class="e" x1="26.95" y1="18.2" x2="17.5" y2="6.38"/><path class="e" d="M85,41.38a25.55,25.55,0,0,0-2.28-9.27c-2.14-4.53-6.29-9-14.34-9,0,0-16.26,0-16.76,21.39,0,0-.19,6.46,3.58,11.42,2.41,3.17,6.44,5.73,13.18,5.58,13.53-.3,16.38-10.7,16.73-16.59,0-.12,0-.24,0-.36A15.94,15.94,0,0,0,85,41.38c6.75-30.63-1-35-1-35S77,1,55,10.47"/><path class="f" d="M33.62,29S46.06,27.31,44.5,44.38c0,0,0,11-10.88,11-9.74.12-12-8.89-12-13.2S23.54,29.47,33.62,29Z"/><path class="f" d="M66.88,29.62s11-.13,11.62,12.56-11.62,13.2-11.62,13.2S56.75,56.5,56,42.5C56,42.5,55.06,29.62,66.88,29.62Z"/><polygon class="f" points="46.06 56.66 54.12 56.66 50.14 67.25 46.06 56.66"/><path class="e" d="M66.41,68.48s2,2,2.34,8c0,0,4.31,1.4,4.5,3.47"/><path class="e" d="M67.25,77.09A51.45,51.45,0,0,1,66.63,88a21,21,0,0,1-1.81,5.73c-1.23,2.37-3,4-5.73,4-4.83,0-6-4.46-6-8.84a37.16,37.16,0,0,1,1.07-8.32"/><path class="e" d="M51,80.75a41.28,41.28,0,0,1,1.22,8.14c.14,4.41-.79,8.93-5.24,8.83-3.39-.08-5.71-1.24-7.28-3.52a16.32,16.32,0,0,1-2.39-6.79,74.47,74.47,0,0,1-.74-11.82"/><path class="e" d="M38.68,69.44a7.25,7.25,0,0,0-3.21,6.62,8.32,8.32,0,0,0-5.53,4.5"/><path class="e" d="M39.71,94.2s-2.93,3.52-9.3,3.52S19.62,85,22.53,81.78c1.56-1.71,4.24-1.91,7.17-.68a19.11,19.11,0,0,1,7.62,6.31"/><path class="e" d="M64.82,93.69s4.59,4.5,8.8,4S86.75,87.41,80.38,81c0,0-2.55-2.55-6.82-.19-2,1.08-4.31,3.21-6.93,7.12"/></svg>